<?xml version="1.0" encoding="utf-8"?>
<!-- Generator: Adobe Illustrator 24.1.2, SVG Export Plug-In . SVG Version: 6.00 Build 0)  -->
<svg version="1.1" id="Layer_1" xmlns="http://www.w3.org/2000/svg" xmlns:xlink="http://www.w3.org/1999/xlink" x="0px" y="0px"
	 viewBox="0 0 32 32" style="enable-background:new 0 0 32 32;" xml:space="preserve">
<style type="text/css">
	.st0{fill:#353535;}
</style>
<path class="st0" d="M30.5,9h-29C0.7,9,0,8.3,0,7.5v0C0,6.7,0.7,6,1.5,6h29C31.3,6,32,6.7,32,7.5v0C32,8.3,31.3,9,30.5,9z"/>
<path class="st0" d="M30.5,17.5h-29C0.7,17.5,0,16.8,0,16v0c0-0.8,0.7-1.5,1.5-1.5h29c0.8,0,1.5,0.7,1.5,1.5v0
	C32,16.8,31.3,17.5,30.5,17.5z"/>
<path class="st0" d="M30.5,26h-29C0.7,26,0,25.3,0,24.5v0C0,23.7,0.7,23,1.5,23h29c0.8,0,1.5,0.7,1.5,1.5v0C32,25.3,31.3,26,30.5,26
	z"/>
</svg>
