<?xml version="1.0" encoding="utf-8"?>
<!-- Generator: Adobe Illustrator 24.1.2, SVG Export Plug-In . SVG Version: 6.00 Build 0)  -->
<svg version="1.1" id="Layer_1" xmlns="http://www.w3.org/2000/svg" xmlns:xlink="http://www.w3.org/1999/xlink" x="0px" y="0px"
	 viewBox="0 0 32 32" style="enable-background:new 0 0 32 32;" xml:space="preserve">
<style type="text/css">
	.st0{fill:#353535;}
</style>
<path class="st0" d="M20.9,8.9L16,13.9l-4.9-4.9c-0.6-0.6-1.5-0.6-2.1,0s-0.6,1.5,0,2.1l4.9,4.9l-4.9,4.9c-0.6,0.6-0.6,1.5,0,2.1
	s1.5,0.6,2.1,0l4.9-4.9l4.9,4.9c0.6,0.6,1.5,0.6,2.1,0s0.6-1.5,0-2.1L18.1,16l4.9-4.9c0.6-0.6,0.6-1.5,0-2.1S21.5,8.3,20.9,8.9z"/>
</svg>
